<?xml version="1.0" encoding="UTF-8" standalone="no"?>
<svg
   height="512px"
   style="enable-background:new 0 0 512 512;"
   version="1.1"
   viewBox="0 0 512 512"
   width="512px"
   xml:space="preserve"
   id="svg8"
   sodipodi:docname="4172908_creative_design_draw_graphic_illustration_icon.svg"
   inkscape:version="1.2.2 (b0a8486541, 2022-12-01)"
   xmlns:inkscape="http://www.inkscape.org/namespaces/inkscape"
   xmlns:sodipodi="http://sodipodi.sourceforge.net/DTD/sodipodi-0.dtd"
   xmlns="http://www.w3.org/2000/svg"
   xmlns:svg="http://www.w3.org/2000/svg"><defs
     id="defs12" /><sodipodi:namedview
     id="namedview10"
     pagecolor="#ffffff"
     bordercolor="#000000"
     borderopacity="0.25"
     inkscape:showpageshadow="2"
     inkscape:pageopacity="0.0"
     inkscape:pagecheckerboard="0"
     inkscape:deskcolor="#d1d1d1"
     showgrid="false"
     inkscape:zoom="0.4609375"
     inkscape:cx="256"
     inkscape:cy="256"
     inkscape:window-width="1680"
     inkscape:window-height="1013"
     inkscape:window-x="0"
     inkscape:window-y="0"
     inkscape:window-maximized="1"
     inkscape:current-layer="svg8" /><g
     id="_x36_4_x2C__illustration_x2C__design_x2C__pen_x2C__graphic_x2C__draw"
     style="fill:#ffffff"><g
       id="g4"
       style="fill:#ffffff"><path
         d="M447.126,457.5c1.85,0,3.345,1.496,3.345,3.345c0,1.822-1.495,3.345-3.345,3.345h-29.179c-1.85,0-3.344-1.522-3.344-3.345    c0-1.849,1.494-3.345,3.344-3.345H447.126z M357.662,479.309c1.849,0,3.344,1.496,3.344,3.346c0,1.821-1.495,3.345-3.344,3.345    H225.396c-1.85,0-3.345-1.523-3.345-3.345c0-1.85,1.495-3.346,3.345-3.346H357.662z M58.157,485.999    c-1.85,0-3.345-1.523-3.345-3.345c0-1.85,1.495-3.346,3.345-3.346h58.356c1.85,0,3.345,1.496,3.345,3.346    c0,1.821-1.495,3.345-3.345,3.345H58.157z M167.991,485.999c-1.85,0-3.345-1.523-3.345-3.345c0-1.85,1.495-3.346,3.345-3.346    h26.619c1.85,0,3.345,1.496,3.345,3.346c0,1.821-1.495,3.345-3.345,3.345H167.991z M72.68,416.438H57.912v14.767H72.68v-4.052    h163.645v13.16h37.147v-13.16h168.951v4.052h14.765v-14.767h-14.765v4.024H289.977c15.72-6.009,29.561-15.854,40.356-28.389    c15.28-17.703,24.528-40.764,24.528-65.971h4.758v-16.18h-16.182v16.18h4.734c0,23.549-8.623,45.086-22.871,61.619    c-13.214,15.31-31.299,26.351-51.829,30.701v-11.095h-37.147v11.529c-21.075-3.943-39.671-14.901-53.324-30.319    c-14.659-16.615-23.577-38.479-23.577-62.436h4.731v-16.18h-16.151v16.18h4.731c0,25.615,9.546,49.029,25.29,66.841    c10.686,12.101,24.229,21.645,39.566,27.519H72.68V416.438z M285.682,304.104l-18.548-0.027 M248.21,82.426v221.65v0.027    l-6.692-0.027V82.426c0-1.82,1.499-3.344,3.345-3.344C246.712,79.082,248.21,80.605,248.21,82.426z M267.134,82.426v221.65v0.027    l-6.689-0.027V82.426c0-1.82,1.495-3.344,3.345-3.344S267.134,80.605,267.134,82.426z M254.9,378.994l30.782-74.51v-0.381l0,0    V82.426l0,0v-17.62h-61.567v17.62l0,0v221.678v0.381L254.9,378.994z M224.114,56.158h61.567V46.043    c0-11.014-9.03-20.041-20.043-20.041h-21.481c-11.013,0-20.043,9.027-20.043,20.041V56.158z M130.625,464.189    c-1.846,0-3.345-1.522-3.345-3.345c0-1.849,1.499-3.345,3.345-3.345h252.652c1.85,0,3.345,1.496,3.345,3.345    c0,1.822-1.495,3.345-3.345,3.345H130.625z"
         id="path2"
         style="fill:#ffffff" /></g></g><g
     id="Layer_1" /></svg>
