<?xml version="1.0" encoding="UTF-8" standalone="no"?>
<svg
   height="42px"
   version="1.1"
   viewBox="0 0 38 42"
   width="38px"
   id="svg21"
   sodipodi:docname="6258885_color_line_second_icon.svg"
   inkscape:version="1.2.2 (b0a8486541, 2022-12-01)"
   xmlns:inkscape="http://www.inkscape.org/namespaces/inkscape"
   xmlns:sodipodi="http://sodipodi.sourceforge.net/DTD/sodipodi-0.dtd"
   xmlns="http://www.w3.org/2000/svg"
   xmlns:svg="http://www.w3.org/2000/svg">
  <defs
     id="defs25" />
  <sodipodi:namedview
     id="namedview23"
     pagecolor="#ffffff"
     bordercolor="#000000"
     borderopacity="0.25"
     inkscape:showpageshadow="2"
     inkscape:pageopacity="0.0"
     inkscape:pagecheckerboard="0"
     inkscape:deskcolor="#d1d1d1"
     showgrid="false"
     inkscape:zoom="11.238095"
     inkscape:cx="19.665254"
     inkscape:cy="26.783898"
     inkscape:window-width="1680"
     inkscape:window-height="1013"
     inkscape:window-x="0"
     inkscape:window-y="0"
     inkscape:window-maximized="1"
     inkscape:current-layer="Double-Color-Line" />
  <title
     id="title2" />
  <desc
     id="desc4" />
  <g
     fill="none"
     fill-rule="evenodd"
     id="Healtcare-Icon-Set"
     stroke="none"
     stroke-width="1">
    <g
       id="Double-Color-Line"
       transform="translate(-289.000000, -368.000000)">
      <line
         id="Path"
         stroke="#2ed48f"
         stroke-linecap="round"
         stroke-linejoin="round"
         stroke-width="2"
         x1="322.14001"
         x2="320"
         y1="375.85999"
         y2="378"
         style="stroke:#ffffff" />
      <path
         id="Oval"
         style="fill:#ffffff"
         d="M 308 374 A 17.5 17.5 0 0 0 290.5 391.5 A 17.5 17.5 0 0 0 308 409 A 17.5 17.5 0 0 0 325.5 391.5 A 17.5 17.5 0 0 0 308 374 z M 303.4707 382.90039 C 305.9607 382.90039 307.24023 384.38039 307.24023 386.90039 C 307.24023 388.81039 306.45937 390.51 304.10938 393 C 302.58938 394.61 302.19922 395.40906 302.19922 396.53906 L 302.19922 396.88086 L 307 396.88086 L 307 399.17969 L 299.69922 399.17969 L 299.69922 397.42969 C 299.69922 395.12969 300.34047 393.73 302.23047 391.75 C 304.12047 389.77 304.71094 388.49023 304.71094 386.99023 C 304.71094 385.49024 304.21039 385.15039 303.40039 385.15039 C 302.59039 385.15039 302.08984 385.59024 302.08984 386.74023 L 302.08984 388.4707 L 299.69922 388.4707 L 299.69922 386.90039 C 299.69922 384.33039 300.98071 382.90039 303.4707 382.90039 z M 312.59961 382.90039 C 315.07961 382.90039 316.43945 384.38039 316.43945 386.90039 L 316.43945 395.35938 C 316.43945 397.93937 315.07961 399.35938 312.59961 399.35938 C 310.11961 399.35938 308.75977 397.93937 308.75977 395.35938 L 308.75977 386.90039 C 308.75977 384.33039 310.11961 382.90039 312.59961 382.90039 z M 312.59961 385.15039 C 311.79961 385.15039 311.28906 385.59024 311.28906 386.74023 L 311.28906 395.5293 C 311.28906 396.6793 311.78961 397.10938 312.59961 397.10938 C 313.40961 397.10938 313.91016 396.6793 313.91016 395.5293 L 313.91016 386.74023 C 313.91016 385.59024 313.39961 385.15039 312.59961 385.15039 z " />
      <line
         id="line8"
         stroke="#000000"
         stroke-linecap="round"
         stroke-linejoin="round"
         stroke-width="2"
         x1="304.5"
         x2="311.5"
         y1="369"
         y2="369"
         style="stroke:#ffffff" />
      <line
         id="line10"
         stroke="#000000"
         stroke-linecap="round"
         stroke-linejoin="round"
         stroke-width="2"
         x1="308"
         x2="308"
         y1="370"
         y2="374"
         style="stroke:#ffffff" />
      <line
         id="line12"
         stroke="#2ed48f"
         stroke-linecap="round"
         stroke-linejoin="round"
         stroke-width="2"
         x1="320.37"
         x2="325.32001"
         y1="372.67999"
         y2="377.63"
         style="stroke:#ffffff" />
      <rect
         fill="#ffb3e1"
         fill-rule="nonzero"
         height="48"
         id="Rectangle"
         opacity="0"
         width="48"
         x="284"
         y="366" />
    </g>
  </g>
</svg>
