<?xml version="1.0" encoding="UTF-8" standalone="no"?>
<svg
   viewBox="0 0 64 64"
   version="1.1"
   id="svg27"
   sodipodi:docname="6827640_advertisement_advertising_business_creative_idea_icon.svg"
   inkscape:version="1.2.2 (b0a8486541, 2022-12-01)"
   xmlns:inkscape="http://www.inkscape.org/namespaces/inkscape"
   xmlns:sodipodi="http://sodipodi.sourceforge.net/DTD/sodipodi-0.dtd"
   xmlns="http://www.w3.org/2000/svg"
   xmlns:svg="http://www.w3.org/2000/svg">
  <defs
     id="defs31" />
  <sodipodi:namedview
     id="namedview29"
     pagecolor="#ffffff"
     bordercolor="#000000"
     borderopacity="0.25"
     inkscape:showpageshadow="2"
     inkscape:pageopacity="0.0"
     inkscape:pagecheckerboard="0"
     inkscape:deskcolor="#d1d1d1"
     showgrid="false"
     inkscape:zoom="7.375"
     inkscape:cx="31.728814"
     inkscape:cy="41.627119"
     inkscape:window-width="1680"
     inkscape:window-height="1013"
     inkscape:window-x="0"
     inkscape:window-y="0"
     inkscape:window-maximized="1"
     inkscape:current-layer="Idea" />
  <title
     id="title2" />
  <g
     id="Idea">
    <path
       d="M47.39,38.12,41.65,49,41,50.24l-.12.23A1.003,1.003,0,0,1,40,51H24a1.003,1.003,0,0,1-.88-.53L23,50.24,22.35,49,16.61,38.12a18,18,0,0,1,.29-17.29,17.1907,17.1907,0,0,1,13.98-8.8,20.7345,20.7345,0,0,1,2.23,0h.01a17.1907,17.1907,0,0,1,13.98,8.8A18,18,0,0,1,47.39,38.12Z"
       style="fill:#ffffff"
       id="path4" />
    <path
       d="M31.9919,2h0a1,1,0,0,1,1,1V8a1,1,0,0,1-1,1h0a1,1,0,0,1-1-1V3a1,1,0,0,1,1-1Z"
       style="fill:#ffffff"
       id="path10" />
    <path
       d="M15.0244,15.4482a1,1,0,1,0,1.4141-1.414L12.9019,10.5a1,1,0,1,0-1.4141,1.4141Z"
       style="fill:#ffffff"
       id="path12" />
    <path
       d="M9,30.0068H9l-5,.002a1,1,0,0,0,.0005,2H4l5-.002a1,1,0,0,0-.0005-2Z"
       style="fill:#ffffff"
       id="path14" />
    <path
       d="M48.9756,46.5518a1,1,0,1,0-1.4141,1.414L51.0981,51.5a1,1,0,1,0,1.4141-1.4141Z"
       style="fill:#ffffff"
       id="path16" />
    <path
       d="M15.0244,46.5518l-3.5366,3.5341A1,1,0,1,0,12.9019,51.5l3.5366-3.5342a1,1,0,1,0-1.4141-1.414Z"
       style="fill:#ffffff"
       id="path18" />
    <path
       d="M60,29.9912H60l-5,.002a1,1,0,0,0,.0005,2h.0005l5-.002a1,1,0,0,0-.0005-2Z"
       style="fill:#ffffff"
       id="path20" />
    <path
       d="M48.2583,15.7314a.9977.9977,0,0,0,.7075-.2929l3.5347-3.5371a1,1,0,0,0-1.4151-1.4141l-3.5346,3.5371a1,1,0,0,0,.7075,1.707Z"
       style="fill:#ffffff"
       id="path22" />
    <path
       d="M47.3853,38.1152a17.9763,17.9763,0,0,0-.2828-17.2832,17.187,17.187,0,0,0-13.9873-8.8h-.0019a20.2032,20.2032,0,0,0-2.2285,0,17.187,17.187,0,0,0-13.9873,8.8,17.9763,17.9763,0,0,0-.2828,17.2832L23,50.2469V55a7.0081,7.0081,0,0,0,7,7h4a7.0081,7.0081,0,0,0,7-7V50.2469ZM25,54V51H39v3ZM18.6387,21.8154A15.0009,15.0009,0,0,1,30.998,14.0283a18.0193,18.0193,0,0,1,2.002,0,15.0014,15.0014,0,0,1,12.3613,7.7871,15.9865,15.9865,0,0,1,.2544,15.3682L39.3965,49H33V40.6493a11.88,11.88,0,0,0,1.5981.1261,6.4769,6.4769,0,0,0,4.7247-1.73c3.13-3.0644,1.9877-8.99,1.9375-9.2412a.996.996,0,0,0-1.1768-.7842c-4.2992.86-6.8364,4.9369-8.0835,7.6639-1.2471-2.727-3.7843-6.8044-8.0835-7.6639a.9967.9967,0,0,0-1.1768.7842c-.05.251-1.1923,6.1768,1.9375,9.2412a6.4761,6.4761,0,0,0,4.7247,1.73A11.885,11.885,0,0,0,31,40.6493V49H24.6035L18.3843,37.1836A15.9865,15.9865,0,0,1,18.6387,21.8154Zm14.69,16.8711c.7563-1.958,2.708-6.081,6.12-7.4052.1656,1.8271.0572,4.7851-1.5249,6.3349C36.9165,38.6,35.3745,38.9609,33.3291,38.6865Zm-2.6582,0c-2.0391.2754-3.5845-.0849-4.5913-1.0674-1.6846-1.6455-1.6709-4.705-1.522-6.3359C27.9653,32.61,29.915,36.73,30.6709,38.6865ZM34,60H30a5.0083,5.0083,0,0,1-4.8989-4H38.8989A5.0083,5.0083,0,0,1,34,60Z"
       style="fill:#ffffff"
       id="path24" />
  </g>
</svg>
