<?xml version="1.0" encoding="UTF-8" standalone="no"?>
<svg
   id="Outline"
   style="enable-background:new 0 0 64 64;"
   version="1.1"
   viewBox="0 0 64 64"
   xml:space="preserve"
   sodipodi:docname="7430633_compass_love_valentines_romantic_heart_icon.svg"
   inkscape:version="1.2.2 (b0a8486541, 2022-12-01)"
   xmlns:inkscape="http://www.inkscape.org/namespaces/inkscape"
   xmlns:sodipodi="http://sodipodi.sourceforge.net/DTD/sodipodi-0.dtd"
   xmlns="http://www.w3.org/2000/svg"
   xmlns:svg="http://www.w3.org/2000/svg"><defs
     id="defs23" /><sodipodi:namedview
     id="namedview21"
     pagecolor="#ffffff"
     bordercolor="#000000"
     borderopacity="0.25"
     inkscape:showpageshadow="2"
     inkscape:pageopacity="0.0"
     inkscape:pagecheckerboard="0"
     inkscape:deskcolor="#d1d1d1"
     showgrid="false"
     inkscape:zoom="7.375"
     inkscape:cx="29.694915"
     inkscape:cy="38.644068"
     inkscape:window-width="1680"
     inkscape:window-height="1013"
     inkscape:window-x="0"
     inkscape:window-y="0"
     inkscape:window-maximized="1"
     inkscape:current-layer="Outline" /><title
     id="title2" /><desc
     id="desc4" /><g
     id="g18"
     style="fill:#ffffff"><path
       d="M32,28c-9.374,0-17,7.626-17,17s7.626,17,17,17s17-7.626,17-17S41.374,28,32,28z M32,60c-8.271,0-15-6.729-15-15   s6.729-15,15-15s15,6.729,15,15S40.271,60,32,60z"
       id="path6"
       style="fill:#ffffff" /><path
       d="M32,32c-7.168,0-13,5.832-13,13s5.832,13,13,13s13-5.832,13-13S39.168,32,32,32z M33,55.949V52h-2v3.949   c-5.268-0.478-9.472-4.681-9.949-9.949H25v-2h-3.949c0.478-5.268,4.681-9.472,9.949-9.949V38h2v-3.949   c5.268,0.478,9.472,4.681,9.949,9.949H39v2h3.949C42.472,51.268,38.268,55.472,33,55.949z"
       id="path8"
       style="fill:#ffffff" /><path
       d="M36.553,39.105l-6,3c-0.177,0.089-0.323,0.227-0.421,0.398l-4,7c-0.224,0.392-0.158,0.885,0.161,1.203   C26.485,50.899,26.742,51,27,51c0.169,0,0.341-0.043,0.496-0.132l7-4c0.171-0.098,0.31-0.244,0.398-0.421l3-6   c0.192-0.385,0.117-0.85-0.188-1.154C37.403,38.988,36.939,38.911,36.553,39.105z M33.241,45.282l-3.554,2.03l2.031-3.554   l3.046-1.522L33.241,45.282z"
       id="path10"
       style="fill:#ffffff" /><path
       d="M31.293,25.707C31.488,25.902,31.744,26,32,26s0.512-0.098,0.707-0.293l10-10c3.146-3.146,3.146-8.268,0-11.414   C41.183,2.769,39.156,1.929,37,1.929c-1.837,0-3.581,0.61-5,1.734c-1.419-1.124-3.163-1.734-5-1.734   c-2.156,0-4.183,0.84-5.707,2.364c-3.146,3.146-3.146,8.268,0,11.414L31.293,25.707z M22.707,5.707   C23.854,4.561,25.378,3.929,27,3.929s3.146,0.632,4.293,1.778c0.375,0.375,1.039,0.375,1.414,0C33.854,4.561,35.378,3.929,37,3.929   s3.146,0.632,4.293,1.778c2.367,2.367,2.367,6.219,0,8.586L32,23.586l-9.293-9.293C20.34,11.926,20.34,8.074,22.707,5.707z"
       id="path12"
       style="fill:#ffffff" /><rect
       height="7.071"
       transform="matrix(0.7071 -0.7071 0.7071 0.7071 -3.4411 26.6924)"
       width="2"
       x="29.5"
       y="13.964"
       id="rect14"
       style="fill:#ffffff" /><rect
       height="2.121"
       transform="matrix(0.7071 -0.7071 0.7071 0.7071 -1.4736 21.9424)"
       width="2"
       x="24.75"
       y="11.689"
       id="rect16"
       style="fill:#ffffff" /></g></svg>
