<?xml version="1.0" encoding="UTF-8" standalone="no"?>
<svg
   style="enable-background:new 0 0 36 36;"
   version="1.1"
   viewBox="0 0 36 36"
   xml:space="preserve"
   id="svg11"
   sodipodi:docname="model.svg"
   inkscape:version="1.2.2 (b0a8486541, 2022-12-01)"
   xmlns:inkscape="http://www.inkscape.org/namespaces/inkscape"
   xmlns:sodipodi="http://sodipodi.sourceforge.net/DTD/sodipodi-0.dtd"
   xmlns="http://www.w3.org/2000/svg"
   xmlns:svg="http://www.w3.org/2000/svg"><defs
     id="defs15" /><sodipodi:namedview
     id="namedview13"
     pagecolor="#ffffff"
     bordercolor="#000000"
     borderopacity="0.25"
     inkscape:showpageshadow="2"
     inkscape:pageopacity="0.0"
     inkscape:pagecheckerboard="0"
     inkscape:deskcolor="#d1d1d1"
     showgrid="false"
     inkscape:zoom="13.111111"
     inkscape:cx="21.050847"
     inkscape:cy="17.771186"
     inkscape:window-width="1680"
     inkscape:window-height="1013"
     inkscape:window-x="0"
     inkscape:window-y="0"
     inkscape:window-maximized="1"
     inkscape:current-layer="svg11" /><style
     type="text/css"
     id="style2">
	.st0{fill:#222A30;}
	.st1{fill:none;stroke:#222A30;stroke-width:2.0101;stroke-linejoin:round;stroke-miterlimit:10;}
	.st2{fill:#171715;}
	.st3{fill-rule:evenodd;clip-rule:evenodd;fill:#222A30;}
</style><g
     id="Layer_1" /><g
     id="icons"
     style="fill:#ffffff"><g
       id="female"
       style="fill:#ffffff"><path
         class="st3"
         d="M18.1,7.8c-1.3,0-2.4-1.1-2.4-2.4c0-1.3,1.1-2.4,2.4-2.4c1.3,0,2.4,1.1,2.4,2.4C20.4,6.8,19.4,7.8,18.1,7.8z"
         id="path5"
         style="fill:#ffffff" /><path
         class="st3"
         d="M21.1,17.3c0.5,2.2,2,4.5,2.8,5.6c0.2,0.3,0.1,0.8-0.3,1c-0.5,0.2-1.2,0.4-2.1,0.6c0,0-0.3,0-0.7,0.1v8    c0,0.3-0.2,0.5-0.5,0.5h-1.5c-0.3,0-0.5-0.2-0.5-0.5v-7.7c-0.2,0-0.4,0-0.5,0c-0.2,0-0.5,0-0.7,0v7.7c0,0.3-0.2,0.5-0.5,0.5h-1.5    c-0.3,0-0.5-0.2-0.5-0.5v-8c-0.9-0.2-1.7-0.5-2.2-0.7c-0.4-0.1-0.5-0.6-0.3-0.9c0.8-1.1,2.3-3.4,2.8-5.6c0.7-3.2,0.5-4.6,0.2-4.6    c-0.3,0-1.1,2-1.4,3.4c-0.2,0.9-0.7,2.7-1,3.5c-0.1,0.2-0.3,0.4-0.5,0.4l-1.3-0.1c-0.3,0-0.5-0.3-0.4-0.6c0.2-0.8,0.5-2.1,0.8-3.4    c0.4-1.8,0.7-3.2,1.7-4.9c1.1-1.9,4.5-1.8,5-1.8c0.5,0,3.9-0.1,5,1.8c1,1.8,1.3,3.2,1.7,4.9c0.3,1.2,0.6,2.6,0.8,3.4    c0.1,0.3-0.1,0.6-0.4,0.6L23.9,20c-0.2,0-0.5-0.1-0.5-0.4c-0.2-0.8-0.7-2.6-0.9-3.5c-0.4-1.4-1.2-3.4-1.5-3.4    C20.6,12.7,20.4,14.1,21.1,17.3z"
         id="path7"
         style="fill:#ffffff" /></g></g></svg>
