<?xml version="1.0" encoding="UTF-8" standalone="no"?>
<svg
   height="512"
   viewBox="0 0 512 512"
   width="512"
   version="1.1"
   id="svg6"
   sodipodi:docname="moo-car.svg"
   inkscape:version="1.2.2 (b0a8486541, 2022-12-01)"
   xmlns:inkscape="http://www.inkscape.org/namespaces/inkscape"
   xmlns:sodipodi="http://sodipodi.sourceforge.net/DTD/sodipodi-0.dtd"
   xmlns="http://www.w3.org/2000/svg"
   xmlns:svg="http://www.w3.org/2000/svg">
  <defs
     id="defs10" />
  <sodipodi:namedview
     id="namedview8"
     pagecolor="#ffffff"
     bordercolor="#000000"
     borderopacity="0.25"
     inkscape:showpageshadow="2"
     inkscape:pageopacity="0.0"
     inkscape:pagecheckerboard="0"
     inkscape:deskcolor="#d1d1d1"
     showgrid="false"
     inkscape:zoom="0.4609375"
     inkscape:cx="256"
     inkscape:cy="256"
     inkscape:window-width="1680"
     inkscape:window-height="1013"
     inkscape:window-x="0"
     inkscape:window-y="0"
     inkscape:window-maximized="1"
     inkscape:current-layer="svg6" />
  <title
     id="title2" />
  <path
     d="M488,224c-3-5-32.61-17.79-32.61-17.79,5.15-2.66,8.67-3.21,8.67-14.21,0-12-.06-16-8.06-16H428.86c-.11-.24-.23-.49-.34-.74-17.52-38.26-19.87-47.93-46-60.95C347.47,96.88,281.76,96,256,96s-91.47.88-126.49,18.31c-26.16,13-25.51,19.69-46,60.95,0,.11-.21.4-.4.74H55.94c-7.94,0-8,4-8,16,0,11,3.52,11.55,8.67,14.21C56.61,206.21,28,220,24,224s-8,32-8,80,4,96,4,96H31.94c0,14,2.06,16,8.06,16h80c6,0,8-2,8-16H384c0,14,2,16,8,16h82c4,0,6-3,6-16h12s4-49,4-96S491,229,488,224ZM125.26,268.94A516.94,516.94,0,0,1,70.42,272C50,272,49.3,273.31,47.86,260.56a72.16,72.16,0,0,1,.51-17.51L49,240h3c12,0,23.27.51,44.55,6.78a98,98,0,0,1,30.09,15.06C131,265,132,268,132,268Zm247.16,72L368,352H144s.39-.61-5-11.18c-4-7.82,1-12.82,8.91-15.66C163.23,319.64,208,304,256,304s93.66,13.48,108.5,21.16C370,328,376.83,330,372.42,341Zm-257-136.53a96.23,96.23,0,0,1-9.7.07c2.61-4.64,4.06-9.81,6.61-15.21,8-17,17.15-36.24,33.44-44.35,23.54-11.72,72.33-17,110.23-17s86.69,5.24,110.23,17c16.29,8.11,25.4,27.36,33.44,44.35,2.57,5.45,4,10.66,6.68,15.33-2,.11-4.3,0-9.79-.19Zm347.72,56.11C461,273,463,272,441.58,272a516.94,516.94,0,0,1-54.84-3.06c-2.85-.51-3.66-5.32-1.38-7.1a93.84,93.84,0,0,1,30.09-15.06c21.28-6.27,33.26-7.11,45.09-6.69a3.22,3.22,0,0,1,3.09,3A70.18,70.18,0,0,1,463.14,260.56Z"
     id="path4"
     style="fill:#ffffff" />
</svg>
