<?xml version="1.0" encoding="UTF-8" standalone="no"?>
<svg
   role="img"
   viewBox="0 0 24 24"
   version="1.1"
   id="svg6"
   sodipodi:docname="nokia.svg"
   inkscape:version="1.2.2 (b0a8486541, 2022-12-01)"
   xmlns:inkscape="http://www.inkscape.org/namespaces/inkscape"
   xmlns:sodipodi="http://sodipodi.sourceforge.net/DTD/sodipodi-0.dtd"
   xmlns="http://www.w3.org/2000/svg"
   xmlns:svg="http://www.w3.org/2000/svg">
  <defs
     id="defs10" />
  <sodipodi:namedview
     id="namedview8"
     pagecolor="#ffffff"
     bordercolor="#000000"
     borderopacity="0.25"
     inkscape:showpageshadow="2"
     inkscape:pageopacity="0.0"
     inkscape:pagecheckerboard="0"
     inkscape:deskcolor="#d1d1d1"
     showgrid="false"
     inkscape:zoom="9.8333333"
     inkscape:cx="12"
     inkscape:cy="12"
     inkscape:window-width="1680"
     inkscape:window-height="1013"
     inkscape:window-x="0"
     inkscape:window-y="0"
     inkscape:window-maximized="1"
     inkscape:current-layer="svg6" />
  <title
     id="title2">Nokia</title>
  <path
     d="M16.59 9.348v5.304h.796V9.348Zm-8.497-.09c-1.55 0-2.752 1.127-2.752 2.742 0 1.687 1.202 2.742 2.752 2.742 1.55 0 2.754-1.055 2.751-2.742a2.72 2.72 0 0 0-2.751-2.742ZM10.05 12c0 1.195-.876 1.987-1.957 1.987-1.082 0-1.958-.792-1.958-1.987 0-1.174.876-1.987 1.958-1.987 1.08 0 1.957.813 1.957 1.987zM0 9.176v5.476h.812v-3.619l4.218 3.79v-1.135zM11.442 12l2.952 2.652h1.184L12.622 12l2.956-2.652h-1.184ZM24 14.652h-.875l-.64-1.175h-2.898l-.64 1.175h-.875l1.06-1.958h2.937l-1.465-2.72.432-.798Z"
     id="path4"
     style="fill:#ffffff" />
</svg>
