<?xml version="1.0" encoding="UTF-8" standalone="no"?>
<svg
   id="Icons"
   viewBox="0 0 24 24"
   version="1.1"
   sodipodi:docname="9004797_arrow_direction_up_move_icon.svg"
   inkscape:version="1.2.2 (b0a8486541, 2022-12-01)"
   xmlns:inkscape="http://www.inkscape.org/namespaces/inkscape"
   xmlns:sodipodi="http://sodipodi.sourceforge.net/DTD/sodipodi-0.dtd"
   xmlns="http://www.w3.org/2000/svg"
   xmlns:svg="http://www.w3.org/2000/svg">
  <sodipodi:namedview
     id="namedview9"
     pagecolor="#ffffff"
     bordercolor="#000000"
     borderopacity="0.25"
     inkscape:showpageshadow="2"
     inkscape:pageopacity="0.0"
     inkscape:pagecheckerboard="0"
     inkscape:deskcolor="#d1d1d1"
     showgrid="false"
     inkscape:zoom="27.812867"
     inkscape:cx="10.894238"
     inkscape:cy="12.907695"
     inkscape:window-width="1680"
     inkscape:window-height="1013"
     inkscape:window-x="0"
     inkscape:window-y="0"
     inkscape:window-maximized="1"
     inkscape:current-layer="Icons" />
  <defs
     id="defs4">
    <style
       id="style2">.cls-1{fill:#232323;}</style>
  </defs>
  <path
     class="cls-1"
     d="M12,1A11,11,0,1,0,23,12,11,11,0,0,0,12,1Zm4.707,9.707a1,1,0,0,1-1.414,0L13,8.414V18a1,1,0,0,1-2,0V8.414L8.707,10.707A1,1,0,1,1,7.293,9.293l4-4a1,1,0,0,1,1.414,0l4,4A1,1,0,0,1,16.707,10.707Z"
     id="path6"
     style="fill:#ffffff" />
</svg>
