<?xml version="1.0" encoding="UTF-8" standalone="no"?>
<svg
   height="512px"
   style="enable-background:new 0 0 512 512;"
   version="1.1"
   viewBox="0 0 512 512"
   width="512px"
   xml:space="preserve"
   id="svg8"
   sodipodi:docname="service-1.svg"
   inkscape:version="1.2.2 (b0a8486541, 2022-12-01)"
   xmlns:inkscape="http://www.inkscape.org/namespaces/inkscape"
   xmlns:sodipodi="http://sodipodi.sourceforge.net/DTD/sodipodi-0.dtd"
   xmlns="http://www.w3.org/2000/svg"
   xmlns:svg="http://www.w3.org/2000/svg"><defs
     id="defs12" /><sodipodi:namedview
     id="namedview10"
     pagecolor="#ffffff"
     bordercolor="#000000"
     borderopacity="0.25"
     inkscape:showpageshadow="2"
     inkscape:pageopacity="0.0"
     inkscape:pagecheckerboard="0"
     inkscape:deskcolor="#d1d1d1"
     showgrid="false"
     inkscape:zoom="0.4609375"
     inkscape:cx="256"
     inkscape:cy="82.440678"
     inkscape:window-width="1680"
     inkscape:window-height="1013"
     inkscape:window-x="0"
     inkscape:window-y="0"
     inkscape:window-maximized="1"
     inkscape:current-layer="svg8" /><g
     id="_x37_3_x2C__sketch_x2C__sketching_x2C__design_x2C__draw_x2C__geometry"
     style="fill:#ffffff"><g
       id="g4"
       style="fill:#ffffff"><path
         d="M216.748,318.937l-28.5,28.485l48.742,20.24L216.748,318.937z     M30.681,192.39l9.143,9.142l31.034-31.052l-9.142-9.11c-2.502-2.533-5.807-3.784-9.126-3.784s-6.624,1.251-9.125,3.784    l-12.784,12.768c-2.518,2.502-3.769,5.807-3.769,9.143C26.912,186.583,28.179,189.887,30.681,192.39z M76.44,176.062    l-31.052,31.052l4.155,4.138l31.05-31.052L76.44,176.062z M86.16,185.781l-31.035,31.051l69.978,69.994l0.032,0.032l0.047,0.032    l0.033,0.032l56.184,56.2l31.037-31.051l-92.802-92.802l-0.049-0.032L86.16,185.781z M126.37,214.844l94.293,94.309l0.063,0.064    l0.081,0.064l0.081,0.064l0.063,0.096l0.097,0.064l0.031,0.031v0.033l0.034,0.031h0.016l0.016,0.032    c0.384,0.417,0.674,0.866,0.833,1.38l0.016,0.063l25.903,62.359l0.016,0.063h0.016v0.033l0.016,0.031l0.034,0.065l0.016,0.063    l0.016,0.031l0,0l0.016,0.064l0,0l0.016,0.033l0.016,0.063l0,0v0.032l0.016,0.064h0.018v0.031v0.033l0.016,0.031v0.032    l0.016,0.032v0.031v0.033l0.016,0.031v0.033v0.031l0.016,0.032v0.032v0.031v0.033l0.016,0.064l0,0v0.031l0.016,0.032v0.097v0.064    v0.031l0,0v0.064v0.031v0.098v0.096v0.096v0.064v0.032l0,0v0.063l-0.016,0.032l0,0v0.063l-0.016,0.033l0,0v0.064v0.031l0,0    l-0.016,0.064v0.031l0,0l-0.016,0.064v0.033v0.031l-0.016,0.032l-0.016,0.032l0,0v0.064l-0.018,0.031l0,0l-0.016,0.064v0.032    h-0.016l-0.063,0.192v0.064h-0.018v0.031l-0.032,0.064l-0.016,0.033l-0.016,0.063l0,0l-0.031,0.063l-0.018,0.033l-0.032,0.064    v0.031l-0.032,0.064h-0.016l-0.033,0.064l-0.016,0.031l-0.031,0.064l-0.016,0.032l-0.031,0.032l-0.016,0.031l-0.033,0.064    l-0.016,0.033l-0.032,0.031l-0.032,0.032l-0.018,0.063l-0.031,0.032l-0.032,0.032l-0.016,0.033l-0.034,0.063l-0.031,0.032    l-0.032,0.031l-0.032,0.032l-0.033,0.032l-0.032,0.064h-0.031l-0.034,0.064l-0.031,0.031l-0.032,0.032l-0.032,0.032l-0.033,0.031    l-0.032,0.033l-0.047,0.032l-0.018,0.032l-0.047,0.031l-0.031,0.032l-0.049,0.032l-0.016,0.031l-0.047,0.033l-0.032,0.031    l-0.049,0.033l-0.031,0.031l-0.049,0.032h-0.032l-0.031,0.032l-0.049,0.031l-0.032,0.033l-0.047,0.031h-0.033l-0.047,0.033    l-0.032,0.031l-0.049,0.032l-0.032,0.032l-0.065,0.031H246.1l-0.047,0.033h-0.033l-0.063,0.031l-0.016,0.033l-0.081,0.031h-0.016    l-0.065,0.032h-0.016l-0.031,0.032h-0.048l-0.049,0.031h-0.047l0,0l-0.049,0.033l-0.128,0.031h-0.016l-0.048,0.033h-0.033h-0.016    h-0.047h-0.016l-0.033,0.031h-0.047h-0.016h-0.033l-0.047,0.032h-0.016h-0.032h-0.049h-0.016l-0.032,0.032h-0.049h-0.016h-0.032    h-0.047l0,0h-0.049l-0.048,0.031h-0.096h-0.097h-0.096h-0.047h-0.049l0,0h-0.047h-0.049h-0.047h-0.047l0,0h-0.049H244h-0.049    h-0.047l0,0l-0.047-0.031h-0.049l0,0h-0.047l-0.193-0.032h-0.047l0,0h-0.033l-0.047-0.032h-0.097h-0.016l-0.032-0.031h-0.049    l-0.4-0.129l0,0l-0.049-0.032h-0.031l0,0l-62.36-25.888l-0.047-0.031c-0.562-0.193-1.074-0.513-1.507-0.931l-0.128-0.128    l-0.112-0.097l-0.096-0.128L126.37,299.24v135.947l281.604,2.052V52.658H126.37V214.844z M254.93,137.312v41.702h39.263    c-0.931-11.164-5.87-21.204-13.344-28.711C273.984,143.471,265.002,138.754,254.93,137.312z M332.269,101.672H254.93v27.652    c12.222,1.539,23.192,7.152,31.468,15.43c8.918,8.917,14.756,20.914,15.719,34.26h30.152V101.672z M294.192,186.904h-43.216    c-2.165,0-3.931-1.765-3.931-3.945V136.83c-12.301,0.289-23.399,5.389-31.483,13.473c-8.356,8.373-13.521,19.921-13.521,32.656    c0,12.766,5.164,24.314,13.504,32.654c8.356,8.341,19.904,13.505,32.656,13.505c12.759,0,24.273-5.164,32.646-13.505    C288.322,208.139,293.23,198.1,294.192,186.904z M250.976,93.781h85.239c2.182,0,3.946,1.764,3.946,3.945v85.232    c0,2.181-1.765,3.945-3.946,3.945h-34.099c-0.963,13.344-6.801,25.373-15.688,34.291c-9.782,9.751-23.287,15.814-38.227,15.814    c-14.901,0-28.406-6.031-38.207-15.814c-9.798-9.816-15.845-23.32-15.845-38.236c0-14.885,6.047-28.39,15.83-38.174    c9.56-9.559,22.615-15.557,37.065-15.846V97.727C247.045,95.545,248.811,93.781,250.976,93.781z M276.646,416.485    c-2.182,0-3.946-1.765-3.946-3.946c0-2.181,1.765-3.945,3.946-3.945h99.056V303.283c0-2.15,1.765-3.946,3.946-3.946    s3.945,1.796,3.945,3.946v109.256c0,2.182-1.764,3.946-3.945,3.946H276.646z M383.723,478.106c2.148,0,3.945,1.765,3.945,3.945    c0,2.183-1.797,3.947-3.945,3.947H249.66c-2.181,0-3.945-1.765-3.945-3.947c0-2.181,1.764-3.945,3.945-3.945H383.723z     M80.144,485.999c-2.181,0-3.944-1.765-3.944-3.947c0-2.181,1.763-3.945,3.944-3.945h59.153c2.166,0,3.945,1.765,3.945,3.945    c0,2.183-1.779,3.947-3.945,3.947H80.144z M191.471,485.999c-2.165,0-3.944-1.765-3.944-3.947c0-2.181,1.779-3.945,3.944-3.945    h26.978c2.181,0,3.947,1.765,3.947,3.945c0,2.183-1.766,3.947-3.947,3.947H191.471z M107.587,166.887    c0,2.182-1.779,3.945-3.945,3.945c-2.181,0-3.946-1.764-3.946-3.945V29.947c0-2.183,1.765-3.945,3.946-3.945h78.574    c2.181,0,3.946,1.763,3.946,3.945c0,2.148-1.765,3.912-3.946,3.912h-74.629V166.887z M153.587,465.051    c-2.165,0-3.929-1.764-3.929-3.945c0-2.181,1.764-3.945,3.929-3.945h313.633c2.15,0,3.947,1.765,3.947,3.945    c0,2.182-1.797,3.945-3.947,3.945H153.587z M485.088,82.555h-52.863v338.871h52.863v-14.308h-25.084    c-2.182,0-3.946-1.764-3.946-3.945c0-2.181,1.765-3.946,3.946-3.946h25.084v-12.51h-13.761c-2.181,0-3.946-1.764-3.946-3.945    s1.766-3.945,3.946-3.945h13.761v-11.772h-25.084c-2.182,0-3.946-1.765-3.946-3.946s1.765-3.945,3.946-3.945h25.084v-12.51    h-13.761c-2.181,0-3.946-1.765-3.946-3.945c0-2.183,1.766-3.945,3.946-3.945h13.761v-11.773h-25.084    c-2.182,0-3.946-1.764-3.946-3.945s1.765-3.946,3.946-3.946h25.084v-12.51h-13.761c-2.181,0-3.946-1.765-3.946-3.946    s1.766-3.945,3.946-3.945h13.761v-11.772h-25.084c-2.182,0-3.946-1.765-3.946-3.945c0-2.183,1.765-3.946,3.946-3.946h25.084    v-12.51h-13.761c-2.181,0-3.946-1.797-3.946-3.945c0-2.182,1.766-3.945,3.946-3.945h13.761v-11.773h-25.084    c-2.182,0-3.946-1.764-3.946-3.945s1.765-3.945,3.946-3.945h25.084v-12.511h-13.761c-2.181,0-3.946-1.797-3.946-3.945    c0-2.183,1.766-3.946,3.946-3.946h13.761v-11.771h-25.084c-2.182,0-3.946-1.766-3.946-3.946c0-2.182,1.765-3.945,3.946-3.945    h25.084v-12.543h-13.761c-2.181,0-3.946-1.765-3.946-3.946c0-2.148,1.766-3.945,3.946-3.945h13.761v-11.74h-25.084    c-2.182,0-3.946-1.797-3.946-3.945c0-2.182,1.765-3.945,3.946-3.945h25.084v-12.543h-13.761c-2.181,0-3.946-1.764-3.946-3.945    c0-2.148,1.766-3.945,3.946-3.945h13.761v-11.74h-25.084c-2.182,0-3.946-1.797-3.946-3.945c0-2.183,1.765-3.946,3.946-3.946    h25.084v-12.543h-13.761c-2.181,0-3.946-1.765-3.946-3.945s1.766-3.946,3.946-3.946h13.761V82.555z"
         style="fill-rule:evenodd;clip-rule:evenodd;fill:#ffffff"
         id="path2" /></g></g><g
     id="Layer_1" /></svg>
