<?xml version="1.0" encoding="UTF-8" standalone="no"?>
<svg
   version="1.1"
   width="511"
   height="543.76221"
   id="svg306"
   sodipodi:docname="zelit.svg"
   inkscape:version="1.2.2 (b0a8486541, 2022-12-01)"
   xmlns:inkscape="http://www.inkscape.org/namespaces/inkscape"
   xmlns:sodipodi="http://sodipodi.sourceforge.net/DTD/sodipodi-0.dtd"
   xmlns="http://www.w3.org/2000/svg"
   xmlns:svg="http://www.w3.org/2000/svg">
  <defs
     id="defs310" />
  <sodipodi:namedview
     id="namedview308"
     pagecolor="#ffffff"
     bordercolor="#000000"
     borderopacity="0.25"
     inkscape:showpageshadow="2"
     inkscape:pageopacity="0.0"
     inkscape:pagecheckerboard="0"
     inkscape:deskcolor="#d1d1d1"
     showgrid="false"
     inkscape:zoom="0.65186406"
     inkscape:cx="308.3465"
     inkscape:cy="271.52901"
     inkscape:window-width="1680"
     inkscape:window-height="1013"
     inkscape:window-x="0"
     inkscape:window-y="0"
     inkscape:window-maximized="1"
     inkscape:current-layer="svg306" />
  <path
     d="m 46.30025,95.368982 c 1.456987,0.0011 1.456987,0.0011 2.943408,0.0023 1.118669,-0.004 2.237337,-0.008 3.389905,-0.01207 1.239278,0.0058 2.478556,0.01165 3.755387,0.01765 1.308446,-0.0017 2.616891,-0.0034 3.964987,-0.0052 3.644029,-0.0045 7.287941,0.0036 10.931955,0.01356 3.925018,0.0086 7.85003,0.0057 11.775055,0.0042 6.80442,-0.0011 13.608802,0.0052 20.413213,0.01648 9.83812,0.01623 19.67622,0.02146 29.51435,0.02398 15.96038,0.0044 31.92075,0.0177 47.88112,0.0366 15.50716,0.01835 31.01432,0.03251 46.52149,0.04102 0.95531,5.25e-4 1.91062,0.0011 2.89489,0.0016 4.79236,0.0026 9.58472,0.0051 14.37708,0.0076 39.77899,0.02074 79.55795,0.05598 119.33691,0.100647 -0.88649,4.493851 -3.44082,7.309351 -6.3125,10.750001 -4.327,5.29252 -8.54661,10.63839 -12.625,16.125 -8.768,11.77475 -17.72653,23.40391 -26.68359,35.03515 -1.57703,2.04833 -3.15256,4.09779 -4.72656,6.14844 -5.48422,7.14286 -11.00924,14.25281 -16.54761,21.35376 -3.27172,4.20319 -6.49851,8.43138 -9.66724,12.71265 -3.45885,4.65023 -7.07516,9.14577 -10.75,13.625 -4.93462,6.01674 -9.67254,12.14783 -14.31225,18.39404 -4.06048,5.46071 -8.23829,10.81811 -12.45728,16.15674 -3.34831,4.23718 -6.66554,8.49839 -9.98047,12.76172 -0.59925,0.7707 -1.1985,1.54139 -1.81591,2.33545 -3.38584,4.35825 -6.76013,8.72498 -10.12159,13.10205 -8.11991,10.57322 -16.30764,21.0943 -24.5625,31.5625 -4.51957,5.73447 -8.95911,11.52766 -13.38647,17.33349 -8.61516,11.28796 -17.3631,22.47295 -26.14917,33.62818 -2.9934,3.80551 -5.95598,7.63343 -8.90186,11.47583 -3.38786,4.41889 -6.80464,8.81327 -10.25,13.1875 -4.20587,5.33998 -8.39081,10.69577 -12.5625,16.0625 -0.58732,0.75539 -1.17465,1.51078 -1.77978,2.28906 -2.99924,3.85862 -5.99589,7.71923 -8.98975,11.58203 -1.18077,1.52231 -2.36176,3.04444 -3.54297,4.56641 -0.57806,0.74483 -1.15612,1.48967 -1.7517,2.25708 -3.28624,4.22436 -6.60233,8.42167 -9.96534,12.5852 -1.0137,1.26152 -2.01957,2.52937 -3.01709,3.80371 -2.11559,2.70096 -4.184115,5.20928 -6.629148,7.62744 -9.573409,10.23658 -5.913413,18.98313 -6.511718,34.53907 132.329996,0 264.659996,0 400.999996,0 -1.54003,3.08006 -2.73684,5.08587 -4.87109,7.65234 -0.56872,0.68731 -1.13744,1.37462 -1.72339,2.08276 -0.60819,0.72679 -1.21639,1.45358 -1.84302,2.2024 -0.94226,1.13562 -0.94226,1.13562 -1.90356,2.29419 -4.188,5.03802 -8.42224,10.03576 -12.67969,15.01513 -2.82613,3.32636 -5.53482,6.72528 -8.19946,10.18213 -10.24174,13.27652 -21.07863,24.58399 -38.40956,27.09747 -7.23887,0.77461 -14.51949,0.60794 -21.78992,0.59383 -1.67419,4.4e-4 -3.34837,10e-4 -5.02256,0.003 -4.58591,0.002 -9.1718,-0.002 -13.7577,-0.007 -4.95081,-0.004 -9.90162,-0.003 -14.85243,-0.002 -8.57278,5.3e-4 -17.14556,-0.003 -25.71834,-0.008 -12.39475,-0.008 -24.78949,-0.0107 -37.18424,-0.012 -20.11048,-0.002 -40.22094,-0.009 -60.33141,-0.0183 -19.53353,-0.009 -39.06706,-0.0163 -58.60059,-0.0205 -1.20438,-2.6e-4 -2.40876,-5.3e-4 -3.64964,-8e-4 -6.04213,-10e-4 -12.08426,-0.003 -18.12639,-0.004 -50.11234,-0.0104 -100.224671,-0.028 -150.337006,-0.0503 -0.185671,-12.36115 -0.327665,-24.72197 -0.414498,-37.08423 -0.04168,-5.7409 -0.09819,-11.48084 -0.189018,-17.22119 -0.08717,-5.54384 -0.13481,-11.08675 -0.155502,-16.63122 -0.01474,-2.11114 -0.04352,-4.22223 -0.08682,-6.33298 -0.366731,-18.62383 -0.366731,-18.62383 4.735489,-24.39811 1.343159,-1.14321 2.710695,-2.25898 4.110352,-3.33227 1.393466,-1.58222 1.393466,-1.58222 2.546875,-3.19532 4.394415,-5.84363 8.868043,-11.60935 13.453125,-17.30468 4.11882,-5.12029 8.156505,-10.2897 12.140625,-15.51563 3.369971,-4.39701 6.85297,-8.69571 10.359375,-12.98437 4.785233,-5.85403 9.452967,-11.77816 14.039062,-17.78907 2.619799,-3.43043 5.288109,-6.82174 7.960938,-10.21093 3.512049,-4.45465 6.99169,-8.93144 10.4375,-13.4375 3.625929,-4.73804 7.324658,-9.41233 11.062503,-14.0625 5.4322,-6.75979 10.73741,-13.60771 16,-20.5 5.74118,-7.51911 11.55031,-14.97236 17.47265,-22.34986 10.89292,-13.57273 21.62576,-27.28798 32.18359,-41.1228 4.54028,-5.94805 9.16834,-11.79861 13.90625,-17.58984 4.47481,-5.47193 8.80548,-11.01657 13.01172,-16.69922 2.99421,-4.02502 6.08912,-7.97153 9.17578,-11.92578 4.74364,-6.07777 9.45291,-12.17957 14.125,-18.3125 3.98414,-5.22722 8.01599,-10.40507 12.14453,-15.51953 2.48587,-3.11346 4.92453,-6.26154 7.35547,-9.41797 0.4295,-0.55655 0.859,-1.11311 1.30152,-1.68652 1.85638,-2.41683 3.63212,-4.83893 5.32348,-7.37598 -120.77999,-0.495 -120.77999,-0.495 -243.9999929979178,-1 C 1.555916,147.50591 2.777164,145.48686 4.941413,142.89507 c 0.579272,-0.69794 1.158545,-1.39589 1.755371,-2.11499 0.615688,-0.7342 1.231377,-1.4684 1.865723,-2.22485 1.274852,-1.53376 2.549591,-3.06762 3.824218,-4.60156 0.930784,-1.11617 0.930784,-1.11617 1.880371,-2.25489 5.6407,-6.77392 11.179773,-13.62893 16.678223,-20.51855 C 43.369161,95.685502 43.369161,95.685502 46.30025,95.368982 Z"
     fill="#191718"
     id="path4"
     style="fill:#ffffff;stroke:none" />
  <path
     d="m 94.5777,0.01611207 c 1.763401,-0.0021836 3.5268,-0.00656738 5.290191,-0.01294583 4.818769,-0.01112656 9.636969,0.00874524 14.455669,0.03389031 5.20638,0.02166382 10.41273,0.01428039 15.61915,0.01048863 9.01151,-0.0026173 18.02285,0.013023 27.03432,0.04118919 13.02892,0.04069652 26.05776,0.05366353 39.08673,0.05993996 21.14042,0.0109335 42.28074,0.0441822 63.42111,0.0915131 20.53157,0.04592 41.06311,0.0813 61.59472,0.10253906 1.26632,0.001314 2.53264,0.002627 3.83734,0.003981 6.35298,0.006525 12.70596,0.0128438 19.05894,0.0190595 52.67478,0.0518037 105.34945,0.13984332 158.02413,0.25161802 0.18725,14.83843899 0.32813,29.67672199 0.4145,44.51610399 0.0412,6.89095 0.0973,13.781163 0.18902,20.67164 0.0885,6.652459 0.13479,13.304356 0.1555,19.95743 0.0148,2.535363 0.0436,5.070686 0.0868,7.605724 0.0583,3.557822 0.0661,7.112507 0.0624,10.670727 0.0431,1.56447 0.0431,1.56447 0.0872,3.16054 -0.0797,7.10211 -1.94903,10.54372 -7.00377,15.5193 -0.98584,0.93977 -0.98584,0.93977 -1.99159,1.89853 -0.95456,1.13239 -1.89339,2.27869 -2.80078,3.44922 -0.62056,0.79543 -0.62056,0.79543 -1.25366,1.60693 -0.41516,0.53835 -0.83032,1.07669 -1.25806,1.63135 -0.94517,1.21496 -1.89048,2.4298 -2.83594,3.64453 -0.70914,0.91387 -0.70914,0.91387 -1.43261,1.8462 -1.37366,1.76363 -2.75722,3.51886 -4.14551,5.27099 -4.81037,6.0752 -9.5276,12.20502 -14.14844,18.42578 -4.062,5.46276 -8.24383,10.80046 -12.5625,16.0625 -6.16142,7.50825 -12.07532,15.18592 -17.94189,22.92578 -2.67801,3.53088 -5.36735,7.05306 -8.05811,10.57422 -0.79942,1.0468 -0.79942,1.0468 -1.61499,2.11475 -3.97278,5.19412 -7.98622,10.35559 -12.01001,15.51025 -4.37235,5.60255 -8.69036,11.23946 -12.9375,16.9375 -7.11676,9.54474 -14.45862,18.91163 -21.79101,28.29102 -6.73068,8.6138 -13.40893,17.2583 -19.94947,26.01758 -5.97944,8.00595 -12.06765,15.92372 -18.26123,23.76513 -4.41159,5.58567 -8.74403,11.21967 -12.99829,16.92627 -3.68814,4.94699 -7.4194,9.84995 -11.25,14.6875 -4.64388,5.87078 -9.20957,11.79887 -13.75,17.75 -0.62809,0.82138 -1.25619,1.64275 -1.90332,2.48902 -5.80288,7.62017 -11.42932,15.34527 -17.09668,23.07348 74.91,-0.33 149.82,-0.66 227,-1 -1.91974,3.83949 -4.15013,6.68613 -6.9375,9.875 -3.97736,4.61921 -7.82692,9.30827 -11.5625,14.125 -4.04906,5.20924 -8.21688,10.29256 -12.50903,15.30323 -3.65361,4.26855 -7.16585,8.6378 -10.62769,13.06396 -0.77988,0.86883 -1.55976,1.73766 -2.36328,2.63281 -0.51125,0.5804 -1.02249,1.16079 -1.54923,1.75877 -4.84535,4.90332 -8.45384,6.0545 -15.28301,6.1448 -1.7043,-0.0306 -1.7043,-0.0306 -3.44303,-0.0618 -1.8356,0.009 -1.8356,0.009 -3.70828,0.0181 -3.38067,0.01 -6.75847,-0.0122 -10.13878,-0.0475 -3.65088,-0.0303 -7.30168,-0.02 -10.95265,-0.0147 -6.31996,0.004 -12.63941,-0.0182 -18.95924,-0.0577 -9.13725,-0.057 -18.27426,-0.0751 -27.41167,-0.0839 -14.82579,-0.0153 -29.65131,-0.0619 -44.47696,-0.12812 -14.39907,-0.0643 -28.79808,-0.11382 -43.19726,-0.14356 -1.33204,-0.003 -1.33204,-0.003 -2.69098,-0.006 -4.45509,-0.009 -8.91018,-0.018 -13.36527,-0.0267 -36.9414,-0.0725 -73.8825,-0.19579 -110.82364,-0.35227 0,-4.71651 1.48685,-6.41181 4.3125,-9.875 0.45005,-0.56807 0.90009,-1.13614 1.36377,-1.72143 0.95401,-1.20297 1.91212,-2.4027 2.87403,-3.59937 2.29511,-2.85633 4.55934,-5.73676 6.8247,-8.6167 0.45488,-0.57613 0.90976,-1.15226 1.37842,-1.74585 3.4678,-4.40646 6.83722,-8.88041 10.18408,-13.37915 4.00152,-5.37871 8.09956,-10.66028 12.3125,-15.875 4.07926,-5.04999 7.98778,-10.17817 11.76953,-15.45703 5.13655,-7.08175 10.56845,-13.94968 15.99024,-20.81421 4.85935,-6.15327 9.60695,-12.37744 14.29175,-18.66455 4.48539,-6.00383 9.0844,-11.91527 13.69775,-17.82104 3.20939,-4.11321 6.38506,-8.24561 9.50073,-12.43067 5.49974,-7.38419 11.18971,-14.62022 16.8501,-21.88135 5.94032,-7.628 11.8027,-15.30972 17.5874,-23.05615 4.20534,-5.62964 8.48601,-11.18957 12.84522,-16.70068 5.31135,-6.72417 10.49307,-13.54687 15.68896,-20.36035 2.23164,-2.92253 4.47256,-5.83786 6.71582,-8.75147 0.79793,-1.0364 1.59586,-2.07281 2.41797,-3.14062 0.7902,-1.0261 1.58039,-2.05219 2.39453,-3.10938 1.66696,-2.16644 3.33349,-4.33321 5,-6.5 2.46405,-3.20374 4.92851,-6.40716 7.39453,-9.60937 6.88899,-8.9479 13.74888,-17.9179 20.60547,-26.89063 2.22894,-2.91684 4.45808,-5.83353 6.6875,-8.75 0.81127,-1.06142 0.81127,-1.06142 1.63892,-2.14428 3.29835,-4.31346 6.60755,-8.61835 9.92358,-12.91822 3.03181,-3.93552 6.03151,-7.89154 9,-11.875 7.4035,-9.90665 15.02439,-19.65548 22.75,-29.3125 0.33,-19.139995 0.66,-38.279995 1,-57.999995 -133.32,0 -266.64,0 -403.999998,0 2.31661,-3.861016 4.261364,-6.578295 7.25,-9.8125 2.781578,-3.037304 5.549964,-6.077412 8.25,-9.1875 3.350103,-3.844128 6.754778,-7.63686 10.175782,-11.417969 1.550027,-1.721964 3.089143,-3.453812 4.617187,-5.195313 C 63.506705,5.0164088 74.580192,-0.16913754 94.5777,0.01611207 Z"
     fill="#181717"
     id="path6"
     style="fill:#ffffff;stroke:none" />
</svg>
